<?xml version="1.0" encoding="iso-8859-1"?>
<!-- Generator: Adobe Illustrator 19.0.0, SVG Export Plug-In . SVG Version: 6.00 Build 0)  -->
<svg version="1.1" id="Layer_1" xmlns="http://www.w3.org/2000/svg" xmlns:xlink="http://www.w3.org/1999/xlink" x="0px" y="0px"
	 viewBox="0 0 512 512" style="enable-background:new 0 0 512 512;" xml:space="preserve">
<circle style="fill:#273B7A;" cx="256" cy="256" r="256"/>
<g>
	<polygon style="fill:#121149;" points="195.663,118.662 228.993,151.992 175.552,145.67 	"/>
	<path style="fill:#121149;" d="M282.51,510.64c128.652-13.236,229.048-121.742,229.479-253.79L403.682,148.542l-294.097,18.153
		l74.13,75.059l-74.247,10.225l78.645,78.645l-78.662,6.647L282.51,510.64z"/>
</g>
<path style="fill:#FFFFFF;" d="M119.38,170.667H392.62c7.854,0,14.222-6.368,14.222-14.222l0,0c0-7.854-6.368-14.222-14.222-14.222
	H119.38c-7.854,0-14.222,6.368-14.222,14.222l0,0C105.158,164.299,111.526,170.667,119.38,170.667z"/>
<path style="fill:#D8D8D8;" d="M392.62,142.222H255.426v28.444H392.62c7.854,0,14.222-6.368,14.222-14.222
	S400.474,142.222,392.62,142.222z"/>
<path style="fill:#FFFFFF;" d="M119.38,256H392.62c7.854,0,14.222-6.368,14.222-14.222l0,0c0-7.854-6.368-14.222-14.222-14.222
	H119.38c-7.854,0-14.222,6.368-14.222,14.222l0,0C105.158,249.632,111.526,256,119.38,256z"/>
<path style="fill:#D8D8D8;" d="M392.62,227.556H255.426V256H392.62c7.854,0,14.222-6.368,14.222-14.222
	S400.474,227.556,392.62,227.556z"/>
<path style="fill:#FFFFFF;" d="M119.38,341.333H392.62c7.854,0,14.222-6.368,14.222-14.222l0,0c0-7.854-6.368-14.222-14.222-14.222
	H119.38c-7.854,0-14.222,6.368-14.222,14.222l0,0C105.158,334.965,111.526,341.333,119.38,341.333z"/>
<path style="fill:#D8D8D8;" d="M392.62,312.889H255.426v28.444H392.62c7.854,0,14.222-6.368,14.222-14.222
	C406.842,319.257,400.474,312.889,392.62,312.889z"/>
<path style="fill:#FF6262;" d="M185.391,199.111h-29.449c-7.577,0-13.721-6.142-13.721-13.721v-57.892
	c0-7.577,6.142-13.721,13.721-13.721h29.449c7.577,0,13.719,6.142,13.719,13.721v57.894
	C199.111,192.969,192.969,199.111,185.391,199.111z"/>
<path style="fill:#71E2EF;" d="M356.057,284.444h-29.449c-7.577,0-13.719-6.142-13.719-13.719v-57.894
	c0-7.577,6.142-13.721,13.719-13.721h29.449c7.577,0,13.719,6.142,13.719,13.721v57.894
	C369.778,278.302,363.635,284.444,356.057,284.444z"/>
<path style="fill:#FFC61B;" d="M299.168,369.778h-29.449c-7.577,0-13.719-6.142-13.719-13.719v-57.894
	c0-7.577,6.142-13.719,13.719-13.719h29.449c7.577,0,13.719,6.142,13.719,13.719v57.894
	C312.889,363.635,306.747,369.778,299.168,369.778z"/>
<g>
</g>
<g>
</g>
<g>
</g>
<g>
</g>
<g>
</g>
<g>
</g>
<g>
</g>
<g>
</g>
<g>
</g>
<g>
</g>
<g>
</g>
<g>
</g>
<g>
</g>
<g>
</g>
<g>
</g>
</svg>
